<mxfile host="65bd71144e">
    <diagram id="53vZRzIDgZGgw-JT5D9q" name="Page-1">
        <mxGraphModel dx="791" dy="562" grid="1" gridSize="10" guides="1" tooltips="1" connect="1" arrows="1" fold="1" page="1" pageScale="1" pageWidth="850" pageHeight="1100" math="0" shadow="0">
            <root>
                <mxCell id="0"/>
                <mxCell id="1" parent="0"/>
                <mxCell id="2" value="Provider" style="shape=umlLifeline;perimeter=lifelinePerimeter;container=1;collapsible=0;recursiveResize=0;rounded=0;shadow=0;strokeWidth=1;fontStyle=1;fontSize=13;" parent="1" vertex="1">
                    <mxGeometry x="160" y="78" width="100" height="762" as="geometry"/>
                </mxCell>
                <mxCell id="62" value="" style="endArrow=classic;html=1;" edge="1" parent="2">
                    <mxGeometry width="50" height="50" relative="1" as="geometry">
                        <mxPoint x="219.5" y="153.9999999999999" as="sourcePoint"/>
                        <mxPoint x="60" y="154" as="targetPoint"/>
                        <Array as="points">
                            <mxPoint x="200" y="154"/>
                            <mxPoint x="130" y="154"/>
                        </Array>
                    </mxGeometry>
                </mxCell>
                <mxCell id="63" value="4. OK" style="edgeLabel;html=1;align=center;verticalAlign=middle;resizable=0;points=[];" vertex="1" connectable="0" parent="62">
                    <mxGeometry x="-0.1012" relative="1" as="geometry">
                        <mxPoint as="offset"/>
                    </mxGeometry>
                </mxCell>
                <mxCell id="3" value="" style="points=[];perimeter=orthogonalPerimeter;rounded=0;shadow=0;strokeWidth=1;" parent="2" vertex="1">
                    <mxGeometry x="45" y="70" width="10" height="670" as="geometry"/>
                </mxCell>
                <mxCell id="6" value="Frontend" style="shape=umlLifeline;perimeter=lifelinePerimeter;container=1;collapsible=0;recursiveResize=0;rounded=0;shadow=0;strokeWidth=1;fontStyle=1;fontSize=13;" parent="1" vertex="1">
                    <mxGeometry x="330" y="79" width="100" height="762" as="geometry"/>
                </mxCell>
                <mxCell id="7" value="" style="points=[];perimeter=orthogonalPerimeter;rounded=0;shadow=0;strokeWidth=1;" parent="6" vertex="1">
                    <mxGeometry x="45" y="71" width="10" height="654" as="geometry"/>
                </mxCell>
                <mxCell id="9" value="1. Register" style="verticalAlign=bottom;endArrow=block;entryX=0;entryY=0;shadow=0;strokeWidth=1;" parent="1" edge="1">
                    <mxGeometry relative="1" as="geometry">
                        <mxPoint x="215" y="158.00000000000273" as="sourcePoint"/>
                        <mxPoint x="375" y="158.00000000000273" as="targetPoint"/>
                    </mxGeometry>
                </mxCell>
                <mxCell id="10" value="2. Save Address" style="verticalAlign=bottom;endArrow=block;shadow=0;strokeWidth=1;" parent="1" source="7" target="15" edge="1">
                    <mxGeometry x="-0.3611" y="10" relative="1" as="geometry">
                        <mxPoint x="215" y="200" as="sourcePoint"/>
                        <mxPoint x="670" y="190" as="targetPoint"/>
                        <Array as="points">
                            <mxPoint x="590" y="190"/>
                        </Array>
                        <mxPoint as="offset"/>
                    </mxGeometry>
                </mxCell>
                <mxCell id="12" value="IPFS" style="shape=umlLifeline;perimeter=lifelinePerimeter;container=1;collapsible=0;recursiveResize=0;rounded=0;shadow=0;strokeWidth=1;fontStyle=1;fontSize=13;" parent="1" vertex="1">
                    <mxGeometry x="520" y="80" width="100" height="760" as="geometry"/>
                </mxCell>
                <mxCell id="13" value="" style="points=[];perimeter=orthogonalPerimeter;rounded=0;shadow=0;strokeWidth=1;" parent="12" vertex="1">
                    <mxGeometry x="45" y="70" width="10" height="670" as="geometry"/>
                </mxCell>
                <mxCell id="14" value="Smart Contract" style="shape=umlLifeline;perimeter=lifelinePerimeter;container=1;collapsible=0;recursiveResize=0;rounded=0;shadow=0;strokeWidth=1;fontStyle=1;fontSize=13;" parent="1" vertex="1">
                    <mxGeometry x="700" y="80" width="100" height="760" as="geometry"/>
                </mxCell>
                <mxCell id="15" value="" style="points=[];perimeter=orthogonalPerimeter;rounded=0;shadow=0;strokeWidth=1;" parent="14" vertex="1">
                    <mxGeometry x="45" y="70" width="10" height="670" as="geometry"/>
                </mxCell>
                <mxCell id="17" value="3. OK" style="verticalAlign=bottom;endArrow=none;shadow=0;strokeWidth=1;startArrow=block;startFill=1;endFill=0;" parent="1" source="7" target="15" edge="1">
                    <mxGeometry x="-0.0408" relative="1" as="geometry">
                        <mxPoint x="330.25" y="220" as="sourcePoint"/>
                        <mxPoint x="660" y="220" as="targetPoint"/>
                        <Array as="points">
                            <mxPoint x="400" y="230"/>
                            <mxPoint x="590" y="230"/>
                            <mxPoint x="680" y="230"/>
                        </Array>
                        <mxPoint as="offset"/>
                    </mxGeometry>
                </mxCell>
                <mxCell id="22" value="" style="points=[];perimeter=orthogonalPerimeter;rounded=0;shadow=0;strokeWidth=1;fillColor=#60a917;strokeColor=#2D7600;fontColor=#ffffff;" parent="1" vertex="1">
                    <mxGeometry x="50" y="430" width="10" height="50" as="geometry"/>
                </mxCell>
                <mxCell id="28" value="5. Get Ontologies" style="verticalAlign=bottom;endArrow=block;shadow=0;strokeWidth=1;" parent="1" target="7" edge="1">
                    <mxGeometry relative="1" as="geometry">
                        <mxPoint x="220" y="310" as="sourcePoint"/>
                        <mxPoint x="240" y="310" as="targetPoint"/>
                    </mxGeometry>
                </mxCell>
                <mxCell id="29" value="6. Fetch Ontologies" style="verticalAlign=bottom;endArrow=block;endSize=8;shadow=0;strokeWidth=1;endFill=1;" parent="1" edge="1">
                    <mxGeometry x="-0.0417" relative="1" as="geometry">
                        <mxPoint x="745" y="338" as="targetPoint"/>
                        <mxPoint x="385" y="338" as="sourcePoint"/>
                        <mxPoint as="offset"/>
                        <Array as="points">
                            <mxPoint x="535" y="338"/>
                        </Array>
                    </mxGeometry>
                </mxCell>
                <mxCell id="31" value="7. OK" style="verticalAlign=bottom;endArrow=none;endSize=8;shadow=0;strokeWidth=1;endFill=0;startArrow=block;startFill=1;" parent="1" edge="1">
                    <mxGeometry x="-0.0408" relative="1" as="geometry">
                        <mxPoint x="745" y="365" as="targetPoint"/>
                        <mxPoint x="385" y="365" as="sourcePoint"/>
                        <mxPoint as="offset"/>
                        <Array as="points">
                            <mxPoint x="535" y="365"/>
                        </Array>
                    </mxGeometry>
                </mxCell>
                <mxCell id="32" value="8. OK" style="verticalAlign=bottom;endArrow=none;shadow=0;strokeWidth=1;startArrow=block;startFill=1;endFill=0;" parent="1" edge="1">
                    <mxGeometry relative="1" as="geometry">
                        <mxPoint x="215" y="366.00000000000034" as="sourcePoint"/>
                        <mxPoint x="379.5" y="366.00000000000034" as="targetPoint"/>
                    </mxGeometry>
                </mxCell>
                <mxCell id="33" value="17. Register (CID, proof of validation, ...)" style="verticalAlign=bottom;endArrow=block;endSize=8;shadow=0;strokeWidth=1;endFill=1;exitX=1.5;exitY=0.797;exitDx=0;exitDy=0;exitPerimeter=0;" parent="1" edge="1">
                    <mxGeometry x="-0.0408" relative="1" as="geometry">
                        <mxPoint x="745" y="674.238" as="targetPoint"/>
                        <mxPoint x="390" y="674.238" as="sourcePoint"/>
                        <mxPoint as="offset"/>
                        <Array as="points"/>
                    </mxGeometry>
                </mxCell>
                <mxCell id="34" value="10. Validate dataset" style="verticalAlign=bottom;endArrow=block;shadow=0;strokeWidth=1;entryX=0.519;entryY=0.414;entryDx=0;entryDy=0;entryPerimeter=0;" parent="1" edge="1">
                    <mxGeometry x="-0.1938" y="26" relative="1" as="geometry">
                        <mxPoint x="209.5000000000001" y="386.64" as="sourcePoint"/>
                        <mxPoint x="56.90000000000009" y="386.64" as="targetPoint"/>
                        <mxPoint as="offset"/>
                    </mxGeometry>
                </mxCell>
                <mxCell id="35" value="13. OK" style="verticalAlign=bottom;endArrow=none;endSize=8;shadow=0;strokeWidth=1;endFill=0;startArrow=block;startFill=1;entryX=0.282;entryY=0.516;entryDx=0;entryDy=0;entryPerimeter=0;exitX=0.525;exitY=0.55;exitDx=0;exitDy=0;exitPerimeter=0;" parent="1" edge="1">
                    <mxGeometry x="0.0141" relative="1" as="geometry">
                        <mxPoint x="747.8199999999999" y="515.7199999999998" as="targetPoint"/>
                        <mxPoint x="212.5" y="517.1000000000001" as="sourcePoint"/>
                        <mxPoint as="offset"/>
                        <Array as="points"/>
                    </mxGeometry>
                </mxCell>
                <mxCell id="39" value="14. Store dataset" style="verticalAlign=bottom;endArrow=block;endSize=8;shadow=0;strokeWidth=1;endFill=1;startArrow=none;startFill=0;entryX=0.508;entryY=0.626;entryDx=0;entryDy=0;entryPerimeter=0;" parent="1" edge="1" target="6">
                    <mxGeometry x="-0.5161" relative="1" as="geometry">
                        <mxPoint x="380" y="556" as="targetPoint"/>
                        <mxPoint x="215" y="556" as="sourcePoint"/>
                        <mxPoint as="offset"/>
                        <Array as="points">
                            <mxPoint x="330" y="556"/>
                        </Array>
                    </mxGeometry>
                </mxCell>
                <mxCell id="40" value="" style="points=[];perimeter=orthogonalPerimeter;rounded=0;shadow=0;strokeWidth=1;fillColor=#60a917;strokeColor=#2D7600;fontColor=#ffffff;" parent="1" vertex="1">
                    <mxGeometry x="745" y="647" width="10" height="50" as="geometry"/>
                </mxCell>
                <mxCell id="41" value="18. Mint Token" style="text;html=1;align=center;verticalAlign=middle;resizable=0;points=[];autosize=1;strokeColor=none;" parent="1" vertex="1">
                    <mxGeometry x="705" y="627" width="90" height="20" as="geometry"/>
                </mxCell>
                <mxCell id="43" value="20. OK" style="verticalAlign=bottom;endArrow=none;shadow=0;strokeWidth=1;startArrow=block;startFill=1;endFill=0;" parent="1" edge="1">
                    <mxGeometry relative="1" as="geometry">
                        <mxPoint x="215" y="741" as="sourcePoint"/>
                        <mxPoint x="380" y="741" as="targetPoint"/>
                    </mxGeometry>
                </mxCell>
                <mxCell id="47" value="12. Store PBK of certificate" style="verticalAlign=bottom;endArrow=block;shadow=0;strokeWidth=1;exitX=1.076;exitY=0.478;exitDx=0;exitDy=0;exitPerimeter=0;entryX=-0.188;entryY=0.476;entryDx=0;entryDy=0;entryPerimeter=0;" parent="1" edge="1">
                    <mxGeometry relative="1" as="geometry">
                        <mxPoint x="60.75999999999999" y="488.26" as="sourcePoint"/>
                        <mxPoint x="743.1199999999999" y="489.91999999999985" as="targetPoint"/>
                        <mxPoint as="offset"/>
                    </mxGeometry>
                </mxCell>
                <mxCell id="48" value="16. Return CID" style="verticalAlign=bottom;endArrow=none;endSize=8;shadow=0;strokeWidth=1;endFill=0;startArrow=block;startFill=1;exitX=0.5;exitY=0.67;exitDx=0;exitDy=0;exitPerimeter=0;" parent="1" edge="1">
                    <mxGeometry x="-0.027" y="-26" relative="1" as="geometry">
                        <mxPoint x="565" y="614" as="targetPoint"/>
                        <mxPoint x="380" y="614.1800000000001" as="sourcePoint"/>
                        <mxPoint x="-1" as="offset"/>
                        <Array as="points">
                            <mxPoint x="430" y="614"/>
                        </Array>
                    </mxGeometry>
                </mxCell>
                <mxCell id="49" value="19. OK" style="verticalAlign=bottom;endArrow=none;endSize=8;shadow=0;strokeWidth=1;endFill=0;startArrow=block;startFill=1;" parent="1" edge="1">
                    <mxGeometry x="-0.0408" relative="1" as="geometry">
                        <mxPoint x="745" y="725" as="targetPoint"/>
                        <mxPoint x="385" y="725" as="sourcePoint"/>
                        <mxPoint as="offset"/>
                        <Array as="points">
                            <mxPoint x="530" y="725"/>
                        </Array>
                    </mxGeometry>
                </mxCell>
                <mxCell id="50" value="" style="group" vertex="1" connectable="0" parent="1">
                    <mxGeometry x="5" y="78" width="130" height="760" as="geometry"/>
                </mxCell>
                <mxCell id="26" value="Certifier" style="shape=umlLifeline;perimeter=lifelinePerimeter;container=1;collapsible=0;recursiveResize=0;rounded=0;shadow=0;strokeWidth=1;fontStyle=1;fontSize=13;" parent="50" vertex="1">
                    <mxGeometry width="100" height="760" as="geometry"/>
                </mxCell>
                <mxCell id="27" value="" style="points=[];perimeter=orthogonalPerimeter;rounded=0;shadow=0;strokeWidth=1;" parent="50" vertex="1">
                    <mxGeometry x="45" y="69" width="10" height="670" as="geometry"/>
                </mxCell>
                <mxCell id="65" value="" style="endArrow=classic;html=1;entryX=-0.188;entryY=0.625;entryDx=0;entryDy=0;entryPerimeter=0;" edge="1" parent="1">
                    <mxGeometry width="50" height="50" relative="1" as="geometry">
                        <mxPoint x="385" y="572.75" as="sourcePoint"/>
                        <mxPoint x="563.1199999999999" y="572.75" as="targetPoint"/>
                    </mxGeometry>
                </mxCell>
                <mxCell id="66" value="15. Upload dataset" style="edgeLabel;html=1;align=center;verticalAlign=middle;resizable=0;points=[];" vertex="1" connectable="0" parent="65">
                    <mxGeometry x="0.1281" relative="1" as="geometry">
                        <mxPoint as="offset"/>
                    </mxGeometry>
                </mxCell>
                <mxCell id="68" value="" style="endArrow=classic;html=1;exitX=1.194;exitY=0.427;exitDx=0;exitDy=0;exitPerimeter=0;entryX=-0.071;entryY=0.435;entryDx=0;entryDy=0;entryPerimeter=0;" edge="1" parent="1" target="3">
                    <mxGeometry width="50" height="50" relative="1" as="geometry">
                        <mxPoint x="61.940000000000055" y="438.09000000000003" as="sourcePoint"/>
                        <mxPoint x="205.47000000000003" y="436.11" as="targetPoint"/>
                    </mxGeometry>
                </mxCell>
                <mxCell id="71" value="&lt;span style=&quot;font-size: 12px&quot;&gt;11. Certify&amp;nbsp;dataset&lt;/span&gt;" style="edgeLabel;html=1;align=center;verticalAlign=middle;resizable=0;points=[];" vertex="1" connectable="0" parent="68">
                    <mxGeometry x="0.1702" y="-3" relative="1" as="geometry">
                        <mxPoint x="-27" y="15" as="offset"/>
                    </mxGeometry>
                </mxCell>
            </root>
        </mxGraphModel>
    </diagram>
</mxfile>